<mxfile host="65bd71144e">
    <diagram id="GCrKRl7CNfCXvj5Ebth7" name="Page-1">
        <mxGraphModel dx="1808" dy="575" grid="1" gridSize="10" guides="1" tooltips="1" connect="1" arrows="1" fold="1" page="1" pageScale="1" pageWidth="850" pageHeight="1100" math="0" shadow="0">
            <root>
                <mxCell id="0"/>
                <mxCell id="1" parent="0"/>
                <mxCell id="3" value="DB&amp;nbsp;manager" style="shape=actor;whiteSpace=wrap;html=1;fillColor=#d80073;strokeColor=#A50040;fontColor=#ffffff;" vertex="1" parent="1">
                    <mxGeometry x="360" y="380" width="110" height="130" as="geometry"/>
                </mxCell>
                <mxCell id="4" value="health center" style="ellipse;shape=cloud;whiteSpace=wrap;html=1;fillColor=#f8cecc;strokeColor=#b85450;" vertex="1" parent="1">
                    <mxGeometry x="325" y="120" width="140" height="110" as="geometry"/>
                </mxCell>
                <mxCell id="5" value="patient" style="ellipse;shape=cloud;whiteSpace=wrap;html=1;gradientColor=#ffa500;fillColor=#ffcd28;strokeColor=#d79b00;" vertex="1" parent="1">
                    <mxGeometry x="10" y="180" width="140" height="110" as="geometry"/>
                </mxCell>
                <mxCell id="6" value="doctor&amp;nbsp;" style="ellipse;shape=cloud;whiteSpace=wrap;html=1;gradientColor=#97d077;fillColor=#d5e8d4;strokeColor=#82b366;" vertex="1" parent="1">
                    <mxGeometry x="580" y="240" width="140" height="110" as="geometry"/>
                </mxCell>
                <mxCell id="7" value="identifier" style="ellipse;shape=cloud;whiteSpace=wrap;html=1;" vertex="1" parent="1">
                    <mxGeometry x="290" y="60" width="90" height="70" as="geometry"/>
                </mxCell>
                <mxCell id="8" value="floor&amp;nbsp;" style="ellipse;shape=cloud;whiteSpace=wrap;html=1;" vertex="1" parent="1">
                    <mxGeometry x="465" y="100" width="90" height="70" as="geometry"/>
                </mxCell>
                <mxCell id="9" value="id-unit" style="ellipse;shape=cloud;whiteSpace=wrap;html=1;" vertex="1" parent="1">
                    <mxGeometry x="235" y="110" width="90" height="70" as="geometry"/>
                </mxCell>
                <mxCell id="10" value="name&amp;nbsp;" style="ellipse;shape=cloud;whiteSpace=wrap;html=1;" vertex="1" parent="1">
                    <mxGeometry x="380" y="50" width="90" height="70" as="geometry"/>
                </mxCell>
                <mxCell id="12" value="code" style="ellipse;shape=cloud;whiteSpace=wrap;html=1;" vertex="1" parent="1">
                    <mxGeometry x="600" y="170" width="90" height="70" as="geometry"/>
                </mxCell>
                <mxCell id="13" value="name" style="ellipse;shape=cloud;whiteSpace=wrap;html=1;" vertex="1" parent="1">
                    <mxGeometry x="510" y="200" width="90" height="70" as="geometry"/>
                </mxCell>
                <mxCell id="14" value="specialty" style="ellipse;shape=cloud;whiteSpace=wrap;html=1;" vertex="1" parent="1">
                    <mxGeometry x="690" y="200" width="90" height="70" as="geometry"/>
                </mxCell>
                <mxCell id="15" value="Social Security number" style="ellipse;shape=cloud;whiteSpace=wrap;html=1;" vertex="1" parent="1">
                    <mxGeometry x="-70" y="190" width="90" height="70" as="geometry"/>
                </mxCell>
                <mxCell id="16" value="age&amp;nbsp;" style="ellipse;shape=cloud;whiteSpace=wrap;html=1;" vertex="1" parent="1">
                    <mxGeometry x="-10" y="120" width="90" height="70" as="geometry"/>
                </mxCell>
                <mxCell id="17" value="date of admission" style="ellipse;shape=cloud;whiteSpace=wrap;html=1;" vertex="1" parent="1">
                    <mxGeometry x="85" y="120" width="90" height="70" as="geometry"/>
                </mxCell>
                <mxCell id="1WvVHDTOiq2sm-3NwcXc-17" value="interventions&amp;nbsp;" style="ellipse;shape=cloud;whiteSpace=wrap;html=1;fillColor=#008a00;strokeColor=#005700;fontColor=#ffffff;" vertex="1" parent="1">
                    <mxGeometry x="40" y="380" width="140" height="110" as="geometry"/>
                </mxCell>
                <mxCell id="WxA1gA-3Ql_XayAKHY1R-17" value="id-doctor" style="ellipse;shape=cloud;whiteSpace=wrap;html=1;" vertex="1" parent="1">
                    <mxGeometry x="-5" y="470" width="90" height="70" as="geometry"/>
                </mxCell>
                <mxCell id="WxA1gA-3Ql_XayAKHY1R-18" value="Social Security number" style="ellipse;shape=cloud;whiteSpace=wrap;html=1;" vertex="1" parent="1">
                    <mxGeometry x="-50" y="400" width="90" height="70" as="geometry"/>
                </mxCell>
                <mxCell id="WxA1gA-3Ql_XayAKHY1R-19" value="date" style="ellipse;shape=cloud;whiteSpace=wrap;html=1;" vertex="1" parent="1">
                    <mxGeometry x="190" y="360" width="90" height="70" as="geometry"/>
                </mxCell>
                <mxCell id="WxA1gA-3Ql_XayAKHY1R-20" value="symptom&amp;nbsp;" style="ellipse;shape=cloud;whiteSpace=wrap;html=1;" vertex="1" parent="1">
                    <mxGeometry x="200" y="440" width="90" height="70" as="geometry"/>
                </mxCell>
                <mxCell id="WxA1gA-3Ql_XayAKHY1R-21" value="Id-doctor" style="ellipse;shape=cloud;whiteSpace=wrap;html=1;" vertex="1" parent="1">
                    <mxGeometry x="480" y="280" width="90" height="70" as="geometry"/>
                </mxCell>
                <mxCell id="WxA1gA-3Ql_XayAKHY1R-22" value="prescribed&amp;nbsp;" style="ellipse;shape=cloud;whiteSpace=wrap;html=1;" vertex="1" parent="1">
                    <mxGeometry x="85" y="490" width="90" height="70" as="geometry"/>
                </mxCell>
                <mxCell id="z3wdgQLSny5b5eBCRtBX-17" value="id-intervent" style="ellipse;shape=cloud;whiteSpace=wrap;html=1;" vertex="1" parent="1">
                    <mxGeometry x="100" y="330" width="90" height="70" as="geometry"/>
                </mxCell>
            </root>
        </mxGraphModel>
    </diagram>
    <diagram id="m_vAR4HaJh_P8DJoUm5Z" name="Page-2">
        <mxGraphModel dx="958" dy="575" grid="1" gridSize="10" guides="1" tooltips="1" connect="1" arrows="1" fold="1" page="1" pageScale="1" pageWidth="850" pageHeight="1100" math="0" shadow="0">
            <root>
                <mxCell id="uoSGJKKh21jcnRX34_ZM-0"/>
                <mxCell id="uoSGJKKh21jcnRX34_ZM-1" parent="uoSGJKKh21jcnRX34_ZM-0"/>
                <mxCell id="LJyf_pADv-K6Jf_1pLBJ-0" value="patient" style="whiteSpace=wrap;html=1;align=center;fillColor=#dae8fc;strokeColor=#6c8ebf;" vertex="1" parent="uoSGJKKh21jcnRX34_ZM-1">
                    <mxGeometry x="200" y="100" width="100" height="80" as="geometry"/>
                </mxCell>
                <mxCell id="LJyf_pADv-K6Jf_1pLBJ-1" value="unit" style="whiteSpace=wrap;html=1;align=center;fillColor=#dae8fc;strokeColor=#6c8ebf;" vertex="1" parent="uoSGJKKh21jcnRX34_ZM-1">
                    <mxGeometry x="570" y="110" width="100" height="80" as="geometry"/>
                </mxCell>
                <mxCell id="LJyf_pADv-K6Jf_1pLBJ-2" value="doctor&amp;nbsp;" style="whiteSpace=wrap;html=1;align=center;fillColor=#dae8fc;strokeColor=#6c8ebf;" vertex="1" parent="uoSGJKKh21jcnRX34_ZM-1">
                    <mxGeometry x="590" y="430" width="100" height="80" as="geometry"/>
                </mxCell>
                <mxCell id="LJyf_pADv-K6Jf_1pLBJ-4" value="interventions" style="whiteSpace=wrap;html=1;align=center;fillColor=#dae8fc;strokeColor=#6c8ebf;" vertex="1" parent="uoSGJKKh21jcnRX34_ZM-1">
                    <mxGeometry x="200" y="430" width="100" height="80" as="geometry"/>
                </mxCell>
                <mxCell id="hnwQrruuYRoMY96LV1FA-0" value="Admission unit" style="shape=rhombus;perimeter=rhombusPerimeter;whiteSpace=wrap;html=1;align=center;fillColor=#fff2cc;strokeColor=#d6b656;" vertex="1" parent="uoSGJKKh21jcnRX34_ZM-1">
                    <mxGeometry x="340" y="270" width="120" height="90" as="geometry"/>
                </mxCell>
                <mxCell id="oezWkmJbDcfEgkEv3dfJ-0" value="age&amp;nbsp;" style="ellipse;whiteSpace=wrap;html=1;align=center;fillColor=#e3c800;strokeColor=#B09500;fontColor=#000000;" vertex="1" parent="uoSGJKKh21jcnRX34_ZM-1">
                    <mxGeometry x="80" y="50" width="100" height="40" as="geometry"/>
                </mxCell>
                <mxCell id="oezWkmJbDcfEgkEv3dfJ-2" value="Social Security number" style="ellipse;whiteSpace=wrap;html=1;align=center;fontStyle=4;fillColor=#fad7ac;strokeColor=#b46504;" vertex="1" parent="uoSGJKKh21jcnRX34_ZM-1">
                    <mxGeometry x="200" y="30" width="100" height="40" as="geometry"/>
                </mxCell>
                <mxCell id="oezWkmJbDcfEgkEv3dfJ-3" value="date of admission" style="ellipse;whiteSpace=wrap;html=1;align=center;fillColor=#e3c800;strokeColor=#B09500;fontColor=#000000;" vertex="1" parent="uoSGJKKh21jcnRX34_ZM-1">
                    <mxGeometry x="60" y="120" width="100" height="40" as="geometry"/>
                </mxCell>
                <mxCell id="oezWkmJbDcfEgkEv3dfJ-4" value="floor&amp;nbsp;" style="ellipse;whiteSpace=wrap;html=1;align=center;fillColor=#e3c800;strokeColor=#B09500;fontColor=#000000;" vertex="1" parent="uoSGJKKh21jcnRX34_ZM-1">
                    <mxGeometry x="690" y="150" width="100" height="40" as="geometry"/>
                </mxCell>
                <mxCell id="oezWkmJbDcfEgkEv3dfJ-5" value="identifier" style="ellipse;whiteSpace=wrap;html=1;align=center;fillColor=#e3c800;strokeColor=#B09500;fontColor=#000000;" vertex="1" parent="uoSGJKKh21jcnRX34_ZM-1">
                    <mxGeometry x="450" y="80" width="100" height="40" as="geometry"/>
                </mxCell>
                <mxCell id="oezWkmJbDcfEgkEv3dfJ-7" value="name&amp;nbsp;" style="ellipse;whiteSpace=wrap;html=1;align=center;fillColor=#e3c800;strokeColor=#B09500;fontColor=#000000;" vertex="1" parent="uoSGJKKh21jcnRX34_ZM-1">
                    <mxGeometry x="680" y="80" width="100" height="40" as="geometry"/>
                </mxCell>
                <mxCell id="GDIVkik6Qwj62CzWRZjc-0" value="id-unit" style="ellipse;whiteSpace=wrap;html=1;align=center;fontStyle=4;fillColor=#fad7ac;strokeColor=#b46504;" vertex="1" parent="uoSGJKKh21jcnRX34_ZM-1">
                    <mxGeometry x="570" y="50" width="100" height="40" as="geometry"/>
                </mxCell>
                <mxCell id="hcrWmP0RnrWl8KkFsf2m-0" value="id-doctor" style="ellipse;whiteSpace=wrap;html=1;align=center;fontStyle=4;fillColor=#fad7ac;strokeColor=#b46504;" vertex="1" parent="uoSGJKKh21jcnRX34_ZM-1">
                    <mxGeometry x="590" y="370" width="100" height="40" as="geometry"/>
                </mxCell>
                <mxCell id="hcrWmP0RnrWl8KkFsf2m-1" value="name" style="ellipse;whiteSpace=wrap;html=1;align=center;fillColor=#e3c800;strokeColor=#B09500;fontColor=#000000;" vertex="1" parent="uoSGJKKh21jcnRX34_ZM-1">
                    <mxGeometry x="700" y="470" width="100" height="40" as="geometry"/>
                </mxCell>
                <mxCell id="hcrWmP0RnrWl8KkFsf2m-2" value="specialty" style="ellipse;whiteSpace=wrap;html=1;align=center;fillColor=#e3c800;strokeColor=#B09500;fontColor=#000000;" vertex="1" parent="uoSGJKKh21jcnRX34_ZM-1">
                    <mxGeometry x="590" y="530" width="100" height="40" as="geometry"/>
                </mxCell>
                <mxCell id="hcrWmP0RnrWl8KkFsf2m-3" value="id-doctor" style="ellipse;whiteSpace=wrap;html=1;align=center;fillColor=#e3c800;strokeColor=#B09500;fontColor=#000000;" vertex="1" parent="uoSGJKKh21jcnRX34_ZM-1">
                    <mxGeometry x="570" y="210" width="100" height="40" as="geometry"/>
                </mxCell>
                <mxCell id="XebvVBWmy6iqw3Bhur27-1" value="id-interven" style="ellipse;whiteSpace=wrap;html=1;align=center;fontStyle=4;fillColor=#fad7ac;strokeColor=#b46504;" vertex="1" parent="uoSGJKKh21jcnRX34_ZM-1">
                    <mxGeometry x="200" y="380" width="100" height="40" as="geometry"/>
                </mxCell>
            </root>
        </mxGraphModel>
    </diagram>
</mxfile>